<svg width="501" height="465" viewBox="0 0 501 465" fill="none" xmlns="http://www.w3.org/2000/svg">
<path d="M231.734 129.173C234.478 110.413 241.18 83.616 250.066 61.6109C254.517 50.5869 259.41 41.0384 264.458 34.3376C269.701 27.3778 274.15 24.7429 277.515 24.7429C281.008 24.743 284.248 26.6351 287.19 31.8604C290.199 37.2053 292.42 45.3372 293.691 55.9125C296.219 76.965 294.791 105.973 290.243 137.076C285.708 168.087 277.641 198.342 268.59 218.938C264.02 229.336 259.425 236.743 255.282 240.671C253.233 242.612 251.664 243.35 250.613 243.533C249.773 243.68 248.818 243.565 247.518 242.552C244.166 239.943 240.828 234.358 237.964 225.848C235.165 217.53 233.059 207.159 231.664 195.881C228.872 173.308 229.012 147.792 231.734 129.173Z" fill="white" stroke="black" stroke-width="10"/>
<path d="M338.824 102.956C363.283 82.4323 384.369 67.2479 402.33 59.0248C420.303 50.7964 434.076 49.9986 444.911 56.3535C447.369 57.7952 448.721 59.4118 449.444 61.0721C450.183 62.7691 450.452 64.9455 450 67.7751C449.065 73.6236 445.217 81.249 438.578 90.2986C425.41 108.246 402.903 129.638 378.438 150.166C354.15 170.546 327.674 187.882 306.934 197.193C296.465 201.893 287.98 204.307 282.166 204.392C279.297 204.435 277.561 203.899 276.575 203.265C275.753 202.736 275.06 201.9 274.737 200.164C272.889 190.256 276.337 176.382 286.927 159.401C297.431 142.558 314.568 123.309 338.824 102.956Z" fill="white" stroke="black" stroke-width="10"/>
<path d="M346.052 189.355C366.827 191.173 398.687 194.342 424.146 201.163C436.944 204.591 447.582 208.808 454.374 213.876C457.731 216.381 459.893 218.908 461.035 221.392C462.128 223.771 462.419 226.389 461.571 229.502C459.62 236.666 455.634 241.782 449.706 245.517C443.625 249.349 435.323 251.83 424.736 253.166C403.474 255.849 374.805 253.735 340.68 250.75C306.993 247.803 273.911 241.151 251.174 232.922C239.699 228.769 231.4 224.401 226.883 220.277C224.641 218.231 223.74 216.612 223.48 215.512C223.277 214.652 223.343 213.655 224.38 212.229C227.047 208.56 232.95 204.756 242.002 201.295C250.849 197.913 261.943 195.14 274.038 193.055C298.244 188.883 325.789 187.583 346.052 189.355Z" fill="white" stroke="black" stroke-width="10"/>
<path d="M317.37 239.576C335.65 249.296 362.304 264.963 382.356 281.337C392.422 289.557 400.492 297.69 405.094 305.092C409.724 312.539 410.166 318.012 407.659 322.193C404.605 327.285 399.941 330.207 393.324 331.272C386.492 332.37 377.683 331.445 366.996 328.593C345.637 322.892 318.554 310.005 288.437 293.991C258.579 278.116 230.726 259.067 213.012 242.608C204.072 234.301 198.139 227.038 195.592 221.477C194.328 218.717 194.131 216.875 194.322 215.761C194.471 214.89 194.922 213.998 196.434 213.09C200.321 210.756 207.242 209.56 216.926 209.911C226.392 210.255 237.687 212.037 249.636 214.844C273.547 220.462 299.411 230.027 317.37 239.576Z" fill="white" stroke="black" stroke-width="10"/>
<path d="M396.431 194.01C372.426 203.709 345.237 210.431 323.476 212.238C312.558 213.144 303.342 212.783 296.68 211.14C289.824 209.45 287.097 206.812 286.364 204.332C286.026 203.187 286.053 201.56 286.993 199.226C287.942 196.87 289.708 194.097 292.365 190.968C297.679 184.708 305.934 177.738 316.026 170.657C336.161 156.531 362.679 142.603 384.873 133.636C407.279 124.583 429.025 117.473 446.776 115.408C464.833 113.308 476.671 116.61 482.275 125.592C484.628 129.364 484.554 133.722 481.365 139.332C478.077 145.117 471.791 151.518 463.114 158.14C445.847 171.316 420.625 184.235 396.431 194.01Z" fill="white" stroke="black" stroke-width="10"/>
<path d="M278.554 100.198C295.953 73.4376 311.891 52.0508 326.703 38.3537C341.654 24.5285 354.148 19.6988 365.184 22.8465C367.74 23.5754 369.404 24.7366 370.533 26.1534C371.694 27.6089 372.535 29.6462 372.878 32.4693C373.584 38.2741 372.074 46.4732 368.38 56.7538C361.043 77.1704 345.974 103.474 328.573 130.238C311.302 156.803 291.12 181.301 274.123 196.589C265.541 204.308 258.196 209.287 252.736 211.26C250.032 212.237 248.298 212.289 247.289 212.053C246.507 211.869 245.714 211.424 244.965 210.01C240.517 201.615 239.907 187.817 245.208 168.789C250.46 149.94 261.304 126.73 278.554 100.198Z" fill="white" stroke="black" stroke-width="10"/>
<path d="M196.281 160.94C190.075 142.917 183.575 115.261 181.309 91.3491C180.173 79.3622 180.135 68.6376 181.579 60.6417C183.1 52.2161 185.873 48.801 188.457 47.9625C191.786 46.8825 195.878 47.5735 201.096 51.2546C206.357 54.9663 212.115 61.3128 218.095 70.0928C230.018 87.5976 242.009 113.555 252.293 143.424C262.554 173.225 269.303 203.835 270.707 226.175C271.416 237.455 270.719 246.058 268.819 251.341C267.879 253.955 266.816 255.272 265.971 255.871C265.306 256.342 264.42 256.64 262.799 256.28C258.598 255.345 253.026 251.73 246.525 245.277C240.173 238.973 233.494 230.53 227.035 220.974C214.106 201.846 202.443 178.836 196.281 160.94Z" fill="white" stroke="black" stroke-width="10"/>
<path d="M155.317 235.224C137.499 226.915 111.865 212.582 92.2564 197.721C82.4172 190.263 74.3829 182.886 69.5587 176.265C64.5364 169.372 64.0932 164.914 65.6126 162.136C67.6219 158.463 71.3946 155.919 77.7609 154.803C84.2485 153.666 92.8913 154.143 103.45 156.232C124.514 160.398 151.648 170.65 181.094 184.381C210.4 198.047 237.878 214.719 255.493 229.342C264.388 236.726 270.328 243.232 272.95 248.26C274.254 250.759 274.471 252.392 274.34 253.326C274.245 253.999 273.929 254.741 272.58 255.586C268.991 257.834 262.424 259.187 253.073 259.199C243.951 259.21 233.014 257.954 221.407 255.77C198.18 251.4 172.938 243.441 155.317 235.224Z" fill="white" stroke="black" stroke-width="10"/>
<path d="M262.932 336.531C259.998 357.407 256.641 387.308 249.225 411.553C245.513 423.686 240.932 433.873 235.254 440.681C229.727 447.308 223.463 450.445 215.795 449.572C207.431 448.62 202.238 445.094 198.829 439.631C195.228 433.86 193.331 425.456 192.903 414.37C192.044 392.128 197.108 362.07 201.903 327.954C206.609 294.467 214.983 261.778 224.391 239.503C229.139 228.262 233.935 220.202 238.289 215.907C240.451 213.776 242.113 212.961 243.225 212.759C244.095 212.601 245.087 212.719 246.458 213.829C249.982 216.684 253.472 222.779 256.454 231.999C259.369 241.011 261.558 252.235 263.006 264.423C265.906 288.814 265.763 316.389 262.932 336.531Z" fill="white" stroke="black" stroke-width="10"/>
<path d="M107.691 308.032C133.528 286.353 158.162 271.133 178.199 262.45C188.227 258.105 196.962 255.459 204.026 254.405C211.237 253.33 216.027 254.013 218.745 255.481C219.349 255.807 219.758 256.258 219.972 257.345C220.229 258.649 220.139 260.754 219.273 263.82C217.545 269.933 213.22 278.218 206.497 287.964C193.13 307.34 171.195 331.202 145.338 352.898C119.297 374.75 92.3734 394.515 71.1932 405.443C60.4994 410.96 51.8648 413.904 45.7945 414.144C42.8394 414.261 40.898 413.719 39.6382 412.919C38.4676 412.177 37.3975 410.907 36.7219 408.499C33.5449 397.177 37.5447 383.363 49.8152 366.222C62.0043 349.195 81.6592 329.876 107.691 308.032Z" fill="white" stroke="black" stroke-width="10"/>
<path d="M135.163 274.152C115.443 272.494 85.8389 267.561 61.7967 260.225C49.7315 256.543 39.4126 252.358 32.4681 247.874C25.1056 243.12 23.5264 239.406 23.973 236.934C24.6603 233.131 27.3515 229.528 33.0551 226.291C38.8037 223.03 47.0814 220.475 57.6595 218.732C78.7691 215.254 107.673 215.219 140.278 217.961C172.772 220.693 204.682 226.859 226.612 234.488C237.686 238.34 245.676 242.385 250.011 246.188C252.169 248.082 252.971 249.529 253.191 250.422C253.343 251.041 253.34 251.804 252.405 253.04C249.895 256.359 244.261 259.873 235.515 263.086C226.988 266.22 216.291 268.791 204.624 270.723C181.278 274.59 154.709 275.796 135.163 274.152Z" fill="white" stroke="black" stroke-width="10"/>
<path d="M211.61 163.413C222.569 179.065 236.138 202.704 244.746 224.455C249.058 235.352 252.021 245.516 252.892 253.834C253.787 262.387 252.348 267.704 249.569 270.431C246.881 273.069 243.231 273.895 237.584 272.092C231.704 270.213 224.455 265.646 216.186 258.547C199.739 244.428 180.749 221.615 162.594 195.688C144.457 169.785 130.793 145.687 123.92 126.388C120.478 116.723 118.852 108.567 119.036 102.145C119.217 95.7864 121.137 91.5845 124.322 88.9535C126.417 87.223 130.519 86.7592 138.238 90.4984C145.59 94.0597 154.346 100.606 163.522 108.888C181.806 125.39 200.652 147.764 211.61 163.413Z" fill="white" stroke="black" stroke-width="10"/>
<path d="M110.253 266.293C139.715 254.853 167.567 246.626 188.606 243.64C199.178 242.139 207.621 242.024 213.558 243.244C219.504 244.467 221.697 246.693 222.387 248.981C223.234 251.787 222.585 255.541 218.955 260.553C215.345 265.539 209.255 271.07 200.839 276.933C184.052 288.627 159.075 300.915 129.616 312.355C100.022 323.846 70.6898 333.725 48.8979 337.529C37.8864 339.451 29.4937 339.686 24.1025 338.274C21.4926 337.59 19.9788 336.62 19.1173 335.639C18.3179 334.73 17.6914 333.375 17.6914 331.084C17.6915 320.514 25.0269 310.197 41.1817 299.256C57.1969 288.409 80.6606 277.784 110.253 266.293Z" fill="white" stroke="black" stroke-width="10"/>
<path d="M192.214 365.425C179.052 387.331 162.64 411.537 147.31 427.797C139.59 435.986 132.518 441.749 126.592 444.397C123.677 445.699 121.331 446.114 119.483 445.94C117.75 445.776 116.124 445.07 114.53 443.449C110.851 439.707 108.771 434.406 108.309 427.458C107.845 420.468 109.051 412.119 111.655 402.826C116.864 384.245 127.372 362.901 139.285 343.075C151.132 323.359 173.188 293.132 193.657 270.524C203.937 259.17 213.542 250.048 221.078 245.075C224.92 242.54 227.668 241.464 229.366 241.292C230.12 241.216 230.431 241.343 230.517 241.386C230.573 241.414 230.8 241.528 231.104 242.087C233.227 245.995 234.022 252.629 233 261.936C232 271.05 229.352 281.941 225.474 293.717C217.722 317.256 205.264 343.707 192.214 365.425Z" fill="white" stroke="black" stroke-width="10"/>
<path d="M317.436 320.103C323.371 334.085 327.861 353.563 328.216 370.449C328.393 378.898 327.525 386.37 325.511 392.072C323.503 397.757 320.579 401.125 316.943 402.57C306.986 406.525 299.138 406.658 291.43 401.379C283.136 395.701 274.247 383.29 264.203 359.629C254.251 336.183 245.168 304.731 241.406 279.343C239.515 266.579 239.037 255.784 240.244 248.417C240.851 244.709 241.808 242.378 242.786 241.094C243.578 240.052 244.329 239.71 245.446 239.74C249.484 239.846 255.266 242.464 262.363 247.905C269.268 253.199 276.705 260.606 283.933 269.022C298.429 285.899 311.52 306.166 317.436 320.103Z" fill="white" stroke="black" stroke-width="10"/>
<path d="M178.691 149.032C229.406 106.478 291.844 109.5 324.032 137.801C339.189 151.128 343.178 174.72 336.296 201.5C329.462 228.094 312.121 256.551 286.764 277.828C261.254 299.233 230.086 313.416 202.742 316.538C175.397 319.659 153.101 311.74 142.599 290.591C120.077 245.242 128.102 191.482 178.691 149.032Z" fill="#FFC760" stroke="black" stroke-width="10"/>
</svg>
